<svg id="Layer_1" data-name="Layer 1" xmlns="http://www.w3.org/2000/svg" viewBox="0 0 50 50"><defs><style>.cls-1{fill:#b0ddff;}</style></defs><title>CUL-Globalicons-New</title><path class="cls-1" d="M42.56,24.36a4.54,4.54,0,0,1-3.39-1.52,3.19,3.19,0,0,0-4.89,0,4.55,4.55,0,0,1-6.79,0,3.21,3.21,0,0,0-2.44-1.14,3.27,3.27,0,0,0-2.45,1.14,4.54,4.54,0,0,1-6.78,0,3.19,3.19,0,0,0-4.89,0,4.55,4.55,0,0,1-6.79,0A3.21,3.21,0,0,0,1.7,21.7a.71.71,0,0,1,0-1.41,4.58,4.58,0,0,1,3.39,1.52,3.17,3.17,0,0,0,4.89,0,4.55,4.55,0,0,1,6.79,0A3.19,3.19,0,0,0,19.21,23a3.24,3.24,0,0,0,2.45-1.15,4.54,4.54,0,0,1,6.78,0,3.17,3.17,0,0,0,4.89,0,4.55,4.55,0,0,1,6.79,0A3.19,3.19,0,0,0,42.56,23,3.24,3.24,0,0,0,45,21.81a4.58,4.58,0,0,1,3.39-1.52.71.71,0,0,1,0,1.41A3.27,3.27,0,0,0,46,22.84,4.54,4.54,0,0,1,42.56,24.36Z"/><path class="cls-1" d="M42.56,30.45a4.58,4.58,0,0,1-3.39-1.52,3.17,3.17,0,0,0-4.89,0,4.55,4.55,0,0,1-6.79,0,3.19,3.19,0,0,0-2.44-1.15,3.24,3.24,0,0,0-2.45,1.15,4.54,4.54,0,0,1-6.78,0,3.17,3.17,0,0,0-4.89,0,4.55,4.55,0,0,1-6.79,0A3.19,3.19,0,0,0,1.7,27.78a.71.71,0,0,1,0-1.41A4.55,4.55,0,0,1,5.09,27.9a3.19,3.19,0,0,0,4.89,0,4.53,4.53,0,0,1,6.79,0A3.21,3.21,0,0,0,19.21,29a3.27,3.27,0,0,0,2.45-1.14,4.52,4.52,0,0,1,6.78,0,3.19,3.19,0,0,0,4.89,0,4.53,4.53,0,0,1,6.79,0A3.21,3.21,0,0,0,42.56,29,3.27,3.27,0,0,0,45,27.9a4.55,4.55,0,0,1,3.39-1.53.71.71,0,0,1,0,1.41A3.24,3.24,0,0,0,46,28.93,4.58,4.58,0,0,1,42.56,30.45Z"/></svg>