<?xml version="1.0" encoding="UTF-8"?>
<!-- Generator: Adobe Illustrator 24.2.3, SVG Export Plug-In . SVG Version: 6.00 Build 0)  -->
<svg version="1.1" id="Layer_1" xmlns:cc="http://creativecommons.org/ns#" xmlns:dc="http://purl.org/dc/elements/1.1/" xmlns:inkscape="http://www.inkscape.org/namespaces/inkscape" xmlns:rdf="http://www.w3.org/1999/02/22-rdf-syntax-ns#" xmlns:sodipodi="http://sodipodi.sourceforge.net/DTD/sodipodi-0.dtd" xmlns:svg="http://www.w3.org/2000/svg" xmlns="http://www.w3.org/2000/svg" xmlns:xlink="http://www.w3.org/1999/xlink" x="0px" y="0px" viewBox="0 0 100 100" style="enable-background:new 0 0 100 100;" xml:space="preserve">
<style type="text/css">
	.st0{fill:#E76C4B;}
</style>
<g transform="translate(0,-952.36218)">
	<path class="st0" d="M25.5,1002.4c0,0.7,0.3,1.5,0.8,2.1l16,17c1.1,1,3.2,1.4,4.4,0.2c1.2-1.1,1.2-3.3,0-4.4l-11.2-11.9h36   c1.7,0,3-1.3,3-3s-1.3-3-3-3H35.4l11.2-11.9c1-1,1.2-3.3,0-4.4c-1.2-1.1-3.3-0.8-4.4,0.3l-16,17C25.8,1001,25.5,1001.6,25.5,1002.4   L25.5,1002.4z"/>
</g>
</svg>