<svg xmlns="http://www.w3.org/2000/svg" width="76" height="56" viewBox="0 0 76 56">
  <defs>
    <style>
      .cls-1 {
        fill: #081c35;
        fill-rule: evenodd;
      }
    </style>
  </defs>
  <path id="_" data-name="“" class="cls-1" d="M26.89,32.9a13.171,13.171,0,0,0-9.13-3.74,11.842,11.842,0,0,0-2.64.22,17.359,17.359,0,0,1,4.51-12.32A37.173,37.173,0,0,1,30.3,9.138l-6.6-9.02a36.155,36.155,0,0,0-7.04,3.63,33.112,33.112,0,0,0-7.59,6.93,39.558,39.558,0,0,0-6.16,10.89A42,42,0,0,0,.38,36.858q0,9.24,4.62,13.86t12.32,4.62A14.048,14.048,0,0,0,27,51.818a12.021,12.021,0,0,0,3.96-9.46A12.3,12.3,0,0,0,26.89,32.9Zm44,0a13.171,13.171,0,0,0-9.13-3.74,11.842,11.842,0,0,0-2.64.22,17.359,17.359,0,0,1,4.51-12.32A37.173,37.173,0,0,1,74.3,9.138l-6.6-9.02a36.155,36.155,0,0,0-7.04,3.63,33.112,33.112,0,0,0-7.59,6.93,39.559,39.559,0,0,0-6.16,10.89,42,42,0,0,0-2.53,15.29q0,9.24,4.62,13.86t12.32,4.62A14.048,14.048,0,0,0,71,51.818a12.021,12.021,0,0,0,3.96-9.46A12.3,12.3,0,0,0,70.89,32.9Z"/>
</svg>