<?xml version="1.0" encoding="UTF-8"?>
<!-- Generator: Adobe Illustrator 24.0.0, SVG Export Plug-In . SVG Version: 6.00 Build 0)  -->
<svg version="1.1" id="Capa_1" xmlns="http://www.w3.org/2000/svg" xmlns:xlink="http://www.w3.org/1999/xlink" x="0px" y="0px" viewBox="0 0 50.3 48.6" style="enable-background:new 0 0 50.3 48.6;" xml:space="preserve">
<style type="text/css">
	.st0{fill:#A1A1A1;}
	.st1{fill:none;stroke:#A1A1A1;stroke-miterlimit:10;}
</style>
<g id="XMLID_123_">
	<path id="XMLID_124_" class="st0" d="M14.2,32.7c2.1,1.4,4.6,2.2,7.3,2.2c8.9,0,13.9-7.5,13.6-14.2c0.9-0.7,1.7-1.5,2.4-2.5   c-0.9,0.4-1.8,0.6-2.8,0.8c1-0.6,1.7-1.5,2.1-2.6c-0.9,0.5-2,0.9-3,1.2c-0.9-0.9-2.1-1.5-3.5-1.5c-3.1,0-5.4,2.9-4.7,5.9   c-4-0.2-7.5-2.1-9.9-5c-1.3,2.2-0.7,5,1.5,6.4c-0.8,0-1.5-0.2-2.2-0.6c-0.1,2.2,1.5,4.3,3.8,4.8c-0.7,0.2-1.4,0.2-2.2,0.1   c0.6,1.9,2.4,3.3,4.5,3.3C19.3,32.3,16.7,33,14.2,32.7z"/>
</g>
<circle class="st1" cx="25" cy="24.5" r="19.5"/>
</svg>