<?xml version="1.0" encoding="UTF-8"?>
<!-- Generator: Adobe Illustrator 24.0.0, SVG Export Plug-In . SVG Version: 6.00 Build 0)  -->
<svg version="1.1" id="Capa_1" xmlns="http://www.w3.org/2000/svg" xmlns:xlink="http://www.w3.org/1999/xlink" x="0px" y="0px" viewBox="0 0 411.2 86.8" style="enable-background:new 0 0 411.2 86.8;" xml:space="preserve">
<style type="text/css">
	.st0{fill:#E9F7FD;}
</style>
<title>wave</title>
<path class="st0" d="M355.3,34.8c-14.8,0-22.3-6.9-29-13c-6-5.5-10.7-9.8-20.9-9.8s-14.9,4.3-20.9,9.8c-6.6,6.1-14.2,13-29,13  c-14.8,0-22.3-6.9-29-13c-6-5.5-10.7-9.8-20.9-9.8s-14.9,4.3-20.9,9.8c-6.6,6.1-14.2,13-29,13s-22.3-6.9-29-13  c-6-5.5-10.7-9.8-20.9-9.8s-14.9,4.3-20.9,9.8c-6.7,6.1-14.2,13-29,13s-22.3-6.9-29-13C20.9,16.3,16.2,12,6,12c-3.3,0-6-2.7-6-6  s2.7-6,6-6c14.8,0,22.3,6.9,29,13c6,5.5,10.7,9.8,20.9,9.8s14.9-4.3,20.9-9.8c6.7-6.1,14.2-13,29-13s22.3,6.9,29,13  c6,5.5,10.7,9.8,20.9,9.8s14.9-4.3,20.9-9.8c6.6-6.1,14.2-13,29-13s22.3,6.9,29,13c6,5.5,10.7,9.8,20.9,9.8s14.9-4.3,20.9-9.8  c6.7-6.1,14.2-13,29-13s22.3,6.9,29,13c6,5.5,10.7,9.8,20.9,9.8s14.9-4.3,20.9-9.8c6.7-6.1,14.2-13,29-13c3.3,0,6,2.7,6,6  s-2.7,6-6,6c-10.1,0-14.9,4.3-20.9,9.8C377.6,27.9,370.1,34.8,355.3,34.8z"/>
<path class="st0" d="M355.3,86.8c-14.8,0-22.3-6.9-29-13c-6-5.5-10.7-9.8-20.9-9.8s-14.9,4.3-20.9,9.8c-6.6,6.1-14.2,13-29,13  c-14.8,0-22.3-6.9-29-13c-6-5.5-10.7-9.8-20.9-9.8s-14.9,4.3-20.9,9.8c-6.6,6.1-14.2,13-29,13s-22.3-6.9-29-13  c-6-5.5-10.7-9.8-20.9-9.8s-14.9,4.3-20.9,9.8c-6.7,6.1-14.2,13-29,13s-22.3-6.9-29-13C20.9,68.3,16.2,64,6,64c-3.3,0-6-2.7-6-6  s2.7-6,6-6c14.8,0,22.3,6.9,29,13c6,5.5,10.7,9.8,20.9,9.8s14.9-4.3,20.9-9.8c6.7-6.1,14.2-13,29-13s22.3,6.9,29,13  c6,5.5,10.7,9.8,20.9,9.8s14.9-4.3,20.9-9.8c6.6-6.1,14.2-13,29-13s22.3,6.9,29,13c6,5.5,10.7,9.8,20.9,9.8s14.9-4.3,20.9-9.8  c6.7-6.1,14.2-13,29-13s22.3,6.9,29,13c6,5.5,10.7,9.8,20.9,9.8s14.9-4.3,20.9-9.8c6.7-6.1,14.2-13,29-13c3.3,0,6,2.7,6,6  s-2.7,6-6,6c-10.1,0-14.9,4.3-20.9,9.8C377.6,79.9,370.1,86.8,355.3,86.8z"/>
</svg>